<svg xmlns="http://www.w3.org/2000/svg" width="70" height="70" viewBox="0 0 70 70" fill="none"><path d="M56 3.11125L59.1113 0L60 0.888749L56.8887 4L60 7.11125L59.1113 8L56 4.88875L52.8887 8L52 7.11125L55.1113 4L52 0.888749L52.8887 0L56 3.11125Z" fill="white"></path><circle cx="66" cy="15" r="3.25" stroke="white" stroke-width="1.5"></circle><path d="M15.0116 40.4991C18.8409 40.346 22.6703 41.7245 25.5806 44.6348C31.0948 50.1491 31.0948 59.3395 25.5806 64.8538C20.0663 70.3681 10.8759 70.3681 5.36159 64.8538C2.60446 62.0967 1.22589 58.4205 1.22589 54.7443C1.22589 51.6808 2.29811 48.6174 4.28937 46.0134" stroke="white" stroke-width="2" stroke-miterlimit="10" stroke-linecap="round" stroke-linejoin="round"></path><path d="M19.6068 61.484H16.5433C13.1735 61.484 10.4163 58.7268 10.4163 55.357C10.4163 51.9872 13.1735 49.23 16.5433 49.23H19.6068" stroke="#FA360A" stroke-width="2" stroke-miterlimit="10" stroke-linecap="round" stroke-linejoin="round"></path><path d="M15.0115 55.357H7.35284" stroke="#FA360A" stroke-width="2" stroke-miterlimit="10" stroke-linecap="round" stroke-linejoin="round"></path><path d="M4.28937 46.1666L21.1385 29.3174" stroke="white" stroke-width="2" stroke-miterlimit="10" stroke-linecap="round" stroke-linejoin="round"></path><path d="M15.0116 29.3174H21.1385V35.4444" stroke="white" stroke-width="2" stroke-miterlimit="10" stroke-linecap="round" stroke-linejoin="round"></path><path d="M41.817 42.4904C38.294 42.4904 34.6178 41.1118 31.8607 38.3547C26.3464 32.8404 26.3464 23.65 31.8607 18.1357C37.375 12.6214 46.5654 12.6214 52.0797 18.1357C54.8368 20.8928 56.3686 24.7222 56.2154 28.3984C56.2154 31.4618 55.1432 34.3722 53.1519 36.9761" stroke="white" stroke-width="2" stroke-miterlimit="10" stroke-linecap="round" stroke-linejoin="round"></path><path d="M37.9877 33.9126H44.1146C45.7996 33.9126 47.1781 32.5341 47.1781 30.8491C47.1781 29.1642 45.7996 27.7857 44.1146 27.7857H41.0512C39.3662 27.7857 37.9877 26.4071 37.9877 24.7222C37.9877 23.0373 39.3662 21.6587 41.0512 21.6587H47.1781" stroke="#FA360A" stroke-width="2" stroke-miterlimit="10" stroke-linecap="round" stroke-linejoin="round"></path><path d="M42.5829 18.5952V21.6587" stroke="#FA360A" stroke-width="2" stroke-miterlimit="10" stroke-linecap="round" stroke-linejoin="round"></path><path d="M42.5829 33.9126V36.9761" stroke="#FA360A" stroke-width="2" stroke-miterlimit="10" stroke-linecap="round" stroke-linejoin="round"></path><path d="M53.3051 36.9761L36.4559 53.8253" stroke="white" stroke-width="2" stroke-miterlimit="10" stroke-linecap="round" stroke-linejoin="round"></path><path d="M42.5829 53.8253H36.4559V47.6983" stroke="white" stroke-width="2" stroke-miterlimit="10" stroke-linecap="round" stroke-linejoin="round"></path></svg>