<svg xmlns="http://www.w3.org/2000/svg" width="72" height="74" viewBox="0 0 72 74" fill="none"><path d="M57.7741 3.11125L60.8854 0L61.7741 0.888749L58.6629 4L61.7741 7.11125L60.8854 8L57.7741 4.88875L54.6629 8L53.7741 7.11125L56.8854 4L53.7741 0.888749L54.6629 0L57.7741 3.11125Z" fill="#ACACAC"></path><circle cx="67.7741" cy="15" r="3.25" stroke="#ACACAC" stroke-width="1.5"></circle><path d="M28.7294 65.1176V55.0941L16.8682 43.2329C15.5318 41.8964 13.5271 41.8964 12.1906 43.2329L11.8565 43.567C10.52 44.9035 10.52 46.9082 11.8565 48.2447L19.5412 55.9294" stroke="#333333" stroke-width="2.5" stroke-miterlimit="10" stroke-linecap="round" stroke-linejoin="round"></path><path d="M8.68235 40.0588V25.0235C8.68235 23.1859 7.17882 21.6823 5.34118 21.6823C3.50353 21.6823 2 23.1859 2 25.0235V43.7341C2 47.7435 3.50353 51.5859 6.34353 54.4259L15.3647 63.447V65.1176" stroke="#333333" stroke-width="2.5" stroke-miterlimit="10" stroke-linecap="round" stroke-linejoin="round"></path><path d="M38.7529 65.1176V55.0941L50.6141 43.2329C51.9506 41.8964 53.9553 41.8964 55.2918 43.2329L55.6259 43.567C56.9623 44.9035 56.9623 46.9082 55.6259 48.2447L47.9412 55.9294" stroke="#333333" stroke-width="2.5" stroke-miterlimit="10" stroke-linecap="round" stroke-linejoin="round"></path><path d="M58.8 40.0588V25.0235C58.8 23.1859 60.3035 21.6823 62.1412 21.6823C63.9788 21.6823 65.4823 23.1859 65.4823 25.0235V43.7341C65.4823 47.7435 63.9788 51.5859 61.1388 54.4259L52.1176 63.447V65.1176" stroke="#333333" stroke-width="2.5" stroke-miterlimit="10" stroke-linecap="round" stroke-linejoin="round"></path><path d="M33.7412 45.0706C42.0449 45.0706 48.7765 38.3391 48.7765 30.0353C48.7765 21.7315 42.0449 15 33.7412 15C25.4374 15 18.7059 21.7315 18.7059 30.0353C18.7059 38.3391 25.4374 45.0706 33.7412 45.0706Z" stroke="#FA360A" stroke-width="2.5" stroke-miterlimit="10" stroke-linecap="round" stroke-linejoin="round"></path><path d="M28.7294 36.7176H35.4118C37.2494 36.7176 38.7529 35.2141 38.7529 33.3765C38.7529 31.5388 37.2494 30.0353 35.4118 30.0353H32.0706C30.2329 30.0353 28.7294 28.5318 28.7294 26.6941C28.7294 24.8565 30.2329 23.3529 32.0706 23.3529H38.7529" stroke="#FA360A" stroke-width="2.5" stroke-miterlimit="10" stroke-linecap="round" stroke-linejoin="round"></path><path d="M33.7412 20.0117V23.3529" stroke="#FA360A" stroke-width="2.5" stroke-miterlimit="10" stroke-linecap="round" stroke-linejoin="round"></path><path d="M33.7412 36.7177V40.0588" stroke="#FA360A" stroke-width="2.5" stroke-miterlimit="10" stroke-linecap="round" stroke-linejoin="round"></path><path d="M13.6941 71.8V68.4588H30.4V71.8" stroke="#333333" stroke-width="2.5" stroke-miterlimit="10" stroke-linecap="round" stroke-linejoin="round"></path><path d="M37.0823 71.8V68.4588H53.7882V71.8" stroke="#333333" stroke-width="2.5" stroke-miterlimit="10" stroke-linecap="round" stroke-linejoin="round"></path></svg>