<svg xmlns="http://www.w3.org/2000/svg" width="72" height="74" viewBox="0 0 72 74" fill="none"><path d="M58 3.11125L61.1113 0L62 0.888749L58.8888 4L62 7.11125L61.1113 8L58 4.88875L54.8888 8L54 7.11125L57.1113 4L54 0.888749L54.8888 0L58 3.11125Z" fill="white"></path><circle cx="68" cy="15" r="3.25" stroke="white" stroke-width="1.5"></circle><path d="M28.9553 65.1176V55.0941L17.0941 43.2329C15.7576 41.8964 13.7529 41.8964 12.4165 43.2329L12.0824 43.567C10.7459 44.9035 10.7459 46.9082 12.0824 48.2447L19.7671 55.9294" stroke="white" stroke-width="2.5" stroke-miterlimit="10" stroke-linecap="round" stroke-linejoin="round"></path><path d="M8.90824 40.0588V25.0235C8.90824 23.1859 7.40471 21.6823 5.56707 21.6823C3.72942 21.6823 2.22589 23.1859 2.22589 25.0235V43.7341C2.22589 47.7435 3.72942 51.5859 6.56942 54.4259L15.5906 63.447V65.1176" stroke="white" stroke-width="2.5" stroke-miterlimit="10" stroke-linecap="round" stroke-linejoin="round"></path><path d="M38.9788 65.1176V55.0941L50.84 43.2329C52.1765 41.8964 54.1812 41.8964 55.5176 43.2329L55.8518 43.567C57.1882 44.9035 57.1882 46.9082 55.8518 48.2447L48.1671 55.9294" stroke="white" stroke-width="2.5" stroke-miterlimit="10" stroke-linecap="round" stroke-linejoin="round"></path><path d="M59.0259 40.0588V25.0235C59.0259 23.1859 60.5294 21.6823 62.3671 21.6823C64.2047 21.6823 65.7082 23.1859 65.7082 25.0235V43.7341C65.7082 47.7435 64.2047 51.5859 61.3647 54.4259L52.3435 63.447V65.1176" stroke="white" stroke-width="2.5" stroke-miterlimit="10" stroke-linecap="round" stroke-linejoin="round"></path><path d="M33.9671 45.0706C42.2708 45.0706 49.0023 38.3391 49.0023 30.0353C49.0023 21.7315 42.2708 15 33.9671 15C25.6633 15 18.9318 21.7315 18.9318 30.0353C18.9318 38.3391 25.6633 45.0706 33.9671 45.0706Z" stroke="#FA360A" stroke-width="2.5" stroke-miterlimit="10" stroke-linecap="round" stroke-linejoin="round"></path><path d="M28.9553 36.7176H35.6376C37.4753 36.7176 38.9788 35.2141 38.9788 33.3765C38.9788 31.5388 37.4753 30.0353 35.6376 30.0353H32.2965C30.4588 30.0353 28.9553 28.5318 28.9553 26.6941C28.9553 24.8565 30.4588 23.3529 32.2965 23.3529H38.9788" stroke="#FA360A" stroke-width="2.5" stroke-miterlimit="10" stroke-linecap="round" stroke-linejoin="round"></path><path d="M33.9671 20.0117V23.3529" stroke="#FA360A" stroke-width="2.5" stroke-miterlimit="10" stroke-linecap="round" stroke-linejoin="round"></path><path d="M33.9671 36.7177V40.0588" stroke="#FA360A" stroke-width="2.5" stroke-miterlimit="10" stroke-linecap="round" stroke-linejoin="round"></path><path d="M13.92 71.8V68.4588H30.6259V71.8" stroke="white" stroke-width="2.5" stroke-miterlimit="10" stroke-linecap="round" stroke-linejoin="round"></path><path d="M37.3082 71.8V68.4588H54.0141V71.8" stroke="white" stroke-width="2.5" stroke-miterlimit="10" stroke-linecap="round" stroke-linejoin="round"></path></svg>