<svg xmlns="http://www.w3.org/2000/svg" width="80" height="82" viewBox="0 0 80 82" fill="none"><path d="M37.8428 36.1809C38.4133 35.9954 38.6986 35.4388 38.6986 34.8821V1.39157C38.6986 0.649402 38.033 0 37.2723 0C27.9542 0 19.1116 3.52532 12.3607 9.8338C12.0755 10.1121 11.9804 10.3904 11.8853 10.7615C11.8853 11.1326 11.9804 11.5037 12.2656 11.782L36.1313 35.8099C36.4166 36.0882 36.7969 36.1809 37.1772 36.1809C37.4625 36.2737 37.6526 36.1809 37.8428 36.1809Z" fill="white"></path><path d="M35.8461 31.4496L15.4033 10.8542C21.1083 5.93735 28.2395 3.06143 35.8461 2.78311V31.4496Z" fill="#FC7263"></path><path d="M37.1772 42.0256C37.1772 41.6545 37.0821 41.1906 36.7969 40.9123L12.8361 16.8845C12.5509 16.6061 12.2656 16.5134 11.8853 16.5134C11.505 16.5134 11.1246 16.6061 10.8394 16.8845C3.89838 23.4712 0 32.3773 0 41.9328C0 49.169 2.28198 56.1269 6.56069 62.0643C6.84593 62.4353 7.22626 62.6209 7.70168 62.6209C7.98692 62.6209 8.27217 62.5281 8.55742 62.3426L36.6067 42.9533C36.892 42.7677 37.0821 42.4894 37.1772 42.0256Z" fill="white"></path><path d="M8.08196 59.3738C4.659 54.1786 2.85243 48.1485 2.85243 41.9328C2.85243 33.5833 6.08523 25.7905 11.8853 19.8531L33.564 41.7472L8.08196 59.3738Z" fill="#FA360A"></path><path d="M79.4889 40.8195C79.3938 40.2629 79.2987 39.7063 79.2036 39.1496C79.0135 37.9436 78.7282 36.7376 78.3479 35.6243C78.1577 35.1604 78.0626 34.6038 77.8725 34.14C77.4921 33.1195 77.1118 32.0062 76.6364 30.9857C76.4462 30.5219 76.2561 30.058 75.9708 29.6869C75.4954 28.7592 74.9249 27.7387 74.3544 26.9038C74.0692 26.5327 73.879 26.0688 73.5937 25.6977C72.9282 24.77 72.1675 23.8423 71.4069 22.9146C71.1216 22.5435 70.8364 22.1724 70.456 21.8941C69.7904 21.1519 69.0298 20.4097 68.174 19.6676C67.7937 19.3893 67.5085 19.0182 67.1281 18.7399C66.2724 18.0905 65.5117 17.4411 64.5609 16.7917C64.1806 16.5133 63.8003 16.235 63.4199 15.9567C62.4691 15.3073 61.5183 14.7507 60.5675 14.2868C60.092 14.1013 59.7117 13.823 59.2363 13.6374C58.0953 13.0808 56.8592 12.6169 55.7183 12.1531C55.2428 11.9675 54.7674 11.782 54.1969 11.6892C53.0559 11.3181 51.8199 11.0398 50.5838 10.7615C50.0133 10.6687 49.4428 10.576 48.8723 10.4832C47.5412 10.2976 46.1149 10.1121 44.7838 10.1121C44.3084 10.1121 43.833 10.1121 43.3575 10.1121C42.2166 10.1121 41.2657 11.0398 41.2657 12.1531V44.6232L14.1672 63.2703C13.6918 63.5486 13.4066 64.1052 13.3115 64.5691C13.2164 65.1257 13.3115 65.6823 13.6918 66.0534L13.7869 66.239C14.3574 67.0739 15.023 67.8161 15.7836 68.7438C16.0689 69.1149 16.4492 69.486 16.7345 69.7643C17.4 70.5065 18.1607 71.2486 19.0164 71.9908C19.3968 72.2691 19.682 72.6402 20.0624 72.9185C21.1083 73.7535 21.964 74.4029 22.9148 75.0523C23.2952 75.2378 23.5804 75.5161 23.9607 75.7017L24.1509 75.7944C25.1017 76.3511 26.0525 76.9077 27.0034 77.3716C27.4788 77.5571 27.8591 77.8354 28.3345 78.021C29.2853 78.4848 30.4263 78.8559 31.5673 79.227C32.0427 79.4125 32.6132 79.5981 33.0886 79.6909C34.3247 80.0619 35.5608 80.3403 36.7018 80.5258C37.2723 80.6186 37.8428 80.7113 38.4133 80.8041C40.0297 80.9897 41.551 81.0824 43.0723 81.0824H43.1674C43.833 81.0824 44.4985 81.0824 45.1641 80.9897C46.8756 80.8969 48.5871 80.7113 50.2986 80.3403C51.1543 80.1547 52.01 79.9692 52.9609 79.6909C55.6232 78.9487 58.1904 77.9282 60.5675 76.7222C62.9445 75.4234 65.2265 73.939 67.3183 72.0836C68.4593 71.0631 69.6003 70.0426 70.5511 68.9293C72.3577 66.8884 73.9741 64.6618 75.3052 62.3425C76.6364 60.0233 77.5872 57.5184 78.3479 54.9208C78.6331 53.9931 78.8233 53.1582 79.0134 52.3232C79.3938 50.6533 79.5839 48.9834 79.679 47.3135C79.679 46.6641 79.7741 46.0147 79.7741 45.3653V45.2726C79.7741 43.9738 79.679 42.3966 79.4889 40.8195ZM76.9216 47.3135C76.8266 48.8907 76.6364 50.4678 76.3511 51.9521C76.161 52.6943 75.9708 53.5292 75.7806 54.3642C75.1151 56.7762 74.1642 59.0028 72.9282 61.1365C71.6921 63.2703 70.2659 65.3112 68.5544 67.1667C67.6036 68.1872 66.6527 69.2077 65.5117 70.1354C63.6101 71.8053 61.5183 73.1968 59.3314 74.4029C57.1445 75.6089 54.7674 76.5366 52.2953 77.186C51.4395 77.4643 50.6789 77.6499 49.8231 77.7427C48.2067 78.021 46.6854 78.2065 45.069 78.2993C44.4985 78.2993 43.833 78.392 43.2625 78.392H43.1674C41.7411 78.392 40.3149 78.2993 38.7936 78.1137C38.2231 78.021 37.7477 77.9282 37.1772 77.8354C36.1313 77.6499 34.9903 77.3716 33.8493 77.0005C33.3739 76.9077 32.8985 76.7222 32.4231 76.5366C31.2821 76.1655 30.3313 75.7944 29.3804 75.4234C29.0001 75.2378 28.5247 75.0523 28.1444 74.8667C27.2886 74.4029 26.3378 73.939 25.482 73.3824L25.2919 73.2896C25.0066 73.1041 24.6263 72.9185 24.3411 72.733C23.6755 72.0836 22.8197 71.4342 21.8689 70.692C21.4886 70.4137 21.2033 70.1354 20.9181 69.8571C20.1574 69.2077 19.4919 68.5582 18.8263 67.8161C18.541 67.5378 18.2558 67.1667 17.9705 66.8884C17.4 66.239 16.9246 65.5896 16.4492 65.0329L43.5477 46.293C43.928 46.0147 44.1182 45.6436 44.1182 45.1798V12.7097C44.3084 12.7097 44.4985 12.7097 44.7838 12.7097C46.1149 12.8025 47.351 12.8952 48.5871 13.0808C49.1576 13.1736 49.633 13.2663 50.2035 13.3591C51.3445 13.5446 52.4855 13.823 53.5314 14.194C54.0068 14.3796 54.4822 14.4724 54.9576 14.6579C56.0986 15.029 57.1445 15.4928 58.1904 15.9567C58.5707 16.1423 59.0461 16.3278 59.4265 16.6061C60.2822 17.07 61.1379 17.5338 61.9937 18.0905C62.374 18.3688 62.7544 18.5543 63.0396 18.8326C63.8003 19.3893 64.656 20.0387 65.4167 20.5953C65.7019 20.8736 66.0822 21.1519 66.3675 21.4302C67.1281 22.0796 67.7937 22.8218 68.4593 23.4712C68.7445 23.7495 69.0298 24.1206 69.315 24.3989C69.9806 25.2339 70.6462 26.0688 71.3118 26.9965C71.597 27.3676 71.7872 27.7387 72.0724 28.1098C72.6429 28.9447 73.1183 29.8725 73.5937 30.7074C73.7839 31.0785 73.9741 31.5424 74.1642 31.9134C74.6397 32.8412 75.02 33.8616 75.3052 34.7894C75.4954 35.2532 75.5905 35.7171 75.7806 36.1809C76.0659 37.2014 76.3511 38.3147 76.5413 39.4279C76.6364 39.9846 76.7315 40.4484 76.8266 41.0051C77.0167 42.4894 77.1118 43.881 77.1118 45.2726V45.3653C77.0167 46.1075 76.9216 46.6641 76.9216 47.3135Z" fill="white"></path><path d="M64.7741 3.11125L67.8854 0L68.7741 0.888749L65.6629 4L68.7741 7.11125L67.8854 8L64.7741 4.88875L61.6629 8L60.7741 7.11125L63.8854 4L60.7741 0.888749L61.6629 0L64.7741 3.11125Z" fill="white"></path><circle cx="74.7741" cy="15" r="3.25" stroke="white" stroke-width="1.5"></circle></svg>