<svg xmlns="http://www.w3.org/2000/svg" width="71" height="79" viewBox="0 0 71 79" fill="none"><path d="M24.6491 57.3307H35.8607C38.7145 57.3307 40.9569 55.1181 40.9569 52.3021C40.9569 49.4862 38.7145 47.2736 35.8607 47.2736H29.7453C26.8914 47.2736 24.6491 45.0611 24.6491 42.2451C24.6491 39.4291 26.8914 37.2166 29.7453 37.2166H38.9184" stroke="#FA360A" stroke-width="2.5" stroke-miterlimit="10" stroke-linecap="round" stroke-linejoin="round"></path><path d="M32.803 31.1823V37.2165" stroke="#FA360A" stroke-width="2.5" stroke-miterlimit="10" stroke-linecap="round" stroke-linejoin="round"></path><path d="M32.803 57.3306V61.3534" stroke="#FA360A" stroke-width="2.5" stroke-miterlimit="10" stroke-linecap="round" stroke-linejoin="round"></path><path d="M50.9454 77.4447H14.4567C7.72977 77.4447 2.22589 72.2151 2.22589 65.7786V65.1751C2.22589 52.3021 6.50668 39.6302 14.4567 29.1709L25.2606 15.091H37.8992L47.8877 26.1538C57.8762 37.2165 63.1762 51.0953 63.1762 65.7786C63.3801 72.2151 57.8762 77.4447 50.9454 77.4447Z" stroke="white" stroke-width="2.5" stroke-miterlimit="10" stroke-linecap="round" stroke-linejoin="round"></path><path d="M37.4914 15.2922C37.4914 15.2922 37.4914 15.091 37.4914 15.2922L38.3068 14.2865C40.5492 11.0682 41.7722 7.44766 41.7722 3.62598C41.7722 1.81571 39.7338 0.608863 37.8991 1.61457L32.3953 4.83282C31.5799 5.23511 30.5606 5.23511 29.7453 4.83282L24.2414 1.61457C22.6106 0.608863 20.3683 1.81571 20.3683 3.62598C20.3683 7.6488 21.7952 11.6716 24.2414 14.8899L24.4452 15.091" stroke="white" stroke-width="2.5" stroke-miterlimit="10" stroke-linecap="round" stroke-linejoin="round"></path><path d="M57 3.11125L60.1113 0L61 0.888749L57.8888 4L61 7.11125L60.1113 8L57 4.88875L53.8888 8L53 7.11125L56.1113 4L53 0.888749L53.8888 0L57 3.11125Z" fill="white"></path><circle cx="67" cy="15" r="3.25" stroke="white" stroke-width="1.5"></circle></svg>